<svg version="1.1" viewBox="0.0 0.0 671.1994750656168 454.8005249343832" fill="none" stroke="none" stroke-linecap="square" stroke-miterlimit="10" xmlns:xlink="http://www.w3.org/1999/xlink" xmlns="http://www.w3.org/2000/svg"><clipPath id="p.0"><path d="m0 0l671.19946 0l0 454.80054l-671.19946 0l0 -454.80054z" clip-rule="nonzero"/></clipPath><g clip-path="url(#p.0)"><path fill="#000000" fill-opacity="0.0" d="m0 0l671.19946 0l0 454.80054l-671.19946 0z" fill-rule="evenodd"/><path fill="#f3f3f3" d="m0 0l672.0 0l0 456.0l-672.0 0z" fill-rule="evenodd"/><path fill="#000000" fill-opacity="0.0" d="m288.0 339.0l90.99213 0l0 32.0l-90.99213 0z" fill-rule="evenodd"/><path fill="#000000" d="m307.67444 361.72l-2.96875 -9.671875l1.703125 0l1.53125 5.578125l0.578125 2.078125q0.046875 -0.15625 0.5 -2.0l1.546875 -5.65625l1.6875 0l1.4375 5.609375l0.484375 1.84375l0.5625 -1.859375l1.65625 -5.59375l1.59375 0l-3.03125 9.671875l-1.703125 0l-1.53125 -5.796875l-0.375 -1.640625l-1.953125 7.4375l-1.71875 0zm18.004211 -1.1875q-0.921875 0.765625 -1.765625 1.09375q-0.828125 0.3125 -1.796875 0.3125q-1.59375 0 -2.453125 -0.78125q-0.859375 -0.78125 -0.859375 -1.984375q0 -0.71875 0.328125 -1.296875q0.328125 -0.59375 0.84375 -0.9375q0.53125 -0.359375 1.1875 -0.546875q0.46875 -0.125 1.453125 -0.25q1.984375 -0.234375 2.921875 -0.5625q0.015625 -0.34375 0.015625 -0.421875q0 -1.0 -0.46875 -1.421875q-0.625 -0.546875 -1.875 -0.546875q-1.15625 0 -1.703125 0.40625q-0.546875 0.40625 -0.8125 1.421875l-1.609375 -0.21875q0.21875 -1.015625 0.71875 -1.640625q0.5 -0.640625 1.453125 -0.984375q0.953125 -0.34375 2.1875 -0.34375q1.25 0 2.015625 0.296875q0.78125 0.28125 1.140625 0.734375q0.375 0.4375 0.515625 1.109375q0.078125 0.421875 0.078125 1.515625l0 2.1875q0 2.28125 0.109375 2.890625q0.109375 0.59375 0.40625 1.15625l-1.703125 0q-0.265625 -0.515625 -0.328125 -1.1875zm-0.140625 -3.671875q-0.890625 0.375 -2.671875 0.625q-1.015625 0.140625 -1.4375 0.328125q-0.421875 0.1875 -0.65625 0.53125q-0.21875 0.34375 -0.21875 0.78125q0 0.65625 0.5 1.09375q0.5 0.4375 1.453125 0.4375q0.9375 0 1.671875 -0.40625q0.75 -0.421875 1.09375 -1.140625q0.265625 -0.5625 0.265625 -1.640625l0 -0.609375zm4.188202 4.859375l0 -9.671875l1.46875 0l0 1.46875q0.5625 -1.03125 1.03125 -1.359375q0.484375 -0.328125 1.0625 -0.328125q0.828125 0 1.6875 0.53125l-0.5625 1.515625q-0.609375 -0.359375 -1.203125 -0.359375q-0.546875 0 -0.96875 0.328125q-0.421875 0.328125 -0.609375 0.890625q-0.28125 0.875 -0.28125 1.921875l0 5.0625l-1.625 0zm6.228302 0l0 -9.671875l1.46875 0l0 1.375q1.0625 -1.59375 3.078125 -1.59375q0.875 0 1.609375 0.3125q0.734375 0.3125 1.09375 0.828125q0.375 0.5 0.515625 1.203125q0.09375 0.453125 0.09375 1.59375l0 5.953125l-1.640625 0l0 -5.890625q0 -1.0 -0.203125 -1.484375q-0.1875 -0.5 -0.671875 -0.796875q-0.484375 -0.296875 -1.140625 -0.296875q-1.046875 0 -1.8125 0.671875q-0.75 0.65625 -0.75 2.515625l0 5.28125l-1.640625 0zm10.375732 -11.46875l0 -1.890625l1.640625 0l0 1.890625l-1.640625 0zm0 11.46875l0 -9.671875l1.640625 0l0 9.671875l-1.640625 0zm4.144806 0l0 -9.671875l1.46875 0l0 1.375q1.0625 -1.59375 3.078125 -1.59375q0.875 0 1.609375 0.3125q0.734375 0.3125 1.09375 0.828125q0.375 0.5 0.515625 1.203125q0.09375 0.453125 0.09375 1.59375l0 5.953125l-1.640625 0l0 -5.890625q0 -1.0 -0.203125 -1.484375q-0.1875 -0.5 -0.671875 -0.796875q-0.484375 -0.296875 -1.140625 -0.296875q-1.046875 0 -1.8125 0.671875q-0.75 0.65625 -0.75 2.515625l0 5.28125l-1.640625 0zm10.063202 0.796875l1.59375 0.234375q0.109375 0.75 0.5625 1.078125q0.609375 0.453125 1.671875 0.453125q1.140625 0 1.75 -0.453125q0.625 -0.453125 0.84375 -1.265625q0.125 -0.5 0.109375 -2.109375q-1.0625 1.265625 -2.671875 1.265625q-2.0 0 -3.09375 -1.4375q-1.09375 -1.4375 -1.09375 -3.453125q0 -1.390625 0.5 -2.5625q0.515625 -1.171875 1.453125 -1.796875q0.953125 -0.640625 2.25 -0.640625q1.703125 0 2.8125 1.375l0 -1.15625l1.515625 0l0 8.359375q0 2.265625 -0.46875 3.203125q-0.453125 0.9375 -1.453125 1.484375q-0.984375 0.546875 -2.453125 0.546875q-1.71875 0 -2.796875 -0.78125q-1.0625 -0.765625 -1.03125 -2.34375zm1.359375 -5.8125q0 1.90625 0.75 2.78125q0.765625 0.875 1.90625 0.875q1.125 0 1.890625 -0.859375q0.765625 -0.875 0.765625 -2.734375q0 -1.78125 -0.796875 -2.671875q-0.78125 -0.90625 -1.890625 -0.90625q-1.09375 0 -1.859375 0.890625q-0.765625 0.875 -0.765625 2.625z" fill-rule="nonzero"/><path fill="#000000" fill-opacity="0.0" d="m80.0 408.12598l560.0 -0.12597656" fill-rule="evenodd"/><path stroke="#000000" stroke-width="1.0" stroke-linejoin="round" stroke-linecap="butt" d="m80.0 408.12598l554.0 -0.12463379" fill-rule="evenodd"/><path fill="#000000" stroke="#000000" stroke-width="1.0" stroke-linecap="butt" d="m634.00037 409.65308l4.5377197 -1.6527405l-4.538452 -1.6507263z" fill-rule="evenodd"/><path fill="#000000" fill-opacity="0.0" d="m80.0 16.0l0 392.0" fill-rule="evenodd"/><path stroke="#000000" stroke-width="1.0" stroke-linejoin="round" stroke-linecap="butt" d="m80.0 22.0l0 386.0" fill-rule="evenodd"/><path fill="#000000" stroke="#000000" stroke-width="1.0" stroke-linecap="butt" d="m81.65173 22.0l-1.6517334 -4.5380974l-1.6517334 4.5380974z" fill-rule="evenodd"/><path fill="#000000" fill-opacity="0.0" d="m96.0 408.12598l520.0 0l0 39.874023l-520.0 0z" fill-rule="evenodd"/><path fill="#000000" d="m340.46143 435.046l0 -11.78125l-4.40625 0l0 -1.578125l10.578125 0l0 1.578125l-4.40625 0l0 11.78125l-1.765625 0zm7.093933 -11.46875l0 -1.890625l1.640625 0l0 1.890625l-1.640625 0zm0 11.46875l0 -9.671875l1.640625 0l0 9.671875l-1.640625 0zm4.144806 0l0 -9.671875l1.46875 0l0 1.359375q0.453125 -0.71875 1.203125 -1.140625q0.765625 -0.4375 1.71875 -0.4375q1.078125 0 1.765625 0.453125q0.6875 0.4375 0.96875 1.234375q1.15625 -1.6875 2.984375 -1.6875q1.453125 0 2.21875 0.796875q0.78125 0.796875 0.78125 2.453125l0 6.640625l-1.640625 0l0 -6.09375q0 -0.984375 -0.15625 -1.40625q-0.15625 -0.4375 -0.578125 -0.703125q-0.421875 -0.265625 -0.984375 -0.265625q-1.015625 0 -1.6875 0.6875q-0.671875 0.671875 -0.671875 2.15625l0 5.625l-1.640625 0l0 -6.28125q0 -1.09375 -0.40625 -1.640625q-0.40625 -0.546875 -1.3125 -0.546875q-0.6875 0 -1.28125 0.359375q-0.59375 0.359375 -0.859375 1.0625q-0.25 0.703125 -0.25 2.03125l0 5.015625l-1.640625 0zm22.165802 -3.109375l1.6875 0.203125q-0.40625 1.484375 -1.484375 2.3125q-1.078125 0.8125 -2.765625 0.8125q-2.125 0 -3.375 -1.296875q-1.234375 -1.3125 -1.234375 -3.671875q0 -2.453125 1.25 -3.796875q1.265625 -1.34375 3.265625 -1.34375q1.9375 0 3.15625 1.328125q1.234375 1.3125 1.234375 3.703125q0 0.15625 0 0.4375l-7.21875 0q0.09375 1.59375 0.90625 2.453125q0.8125 0.84375 2.015625 0.84375q0.90625 0 1.546875 -0.46875q0.640625 -0.484375 1.015625 -1.515625zm-5.390625 -2.65625l5.40625 0q-0.109375 -1.21875 -0.625 -1.828125q-0.78125 -0.953125 -2.03125 -0.953125q-1.125 0 -1.90625 0.765625q-0.765625 0.75 -0.84375 2.015625z" fill-rule="nonzero"/><path fill="#000000" fill-opacity="0.0" d="m0 392.0l0 -352.0l40.0 0l0 352.0z" fill-rule="evenodd"/><path fill="#000000" d="m22.232498 265.19037l0.453125 -1.765625q2.171875 0.5625 3.328125 2.0q1.140625 1.4375 1.140625 3.53125q0 2.15625 -0.875 3.515625q-0.890625 1.34375 -2.546875 2.0625q-1.671875 0.703125 -3.59375 0.703125q-2.078125 0 -3.625 -0.796875q-1.5625 -0.796875 -2.359375 -2.265625q-0.8125 -1.484375 -0.8125 -3.25q0 -2.0 1.015625 -3.359375q1.015625 -1.375 2.875 -1.90625l0.40625 1.734375q-1.453125 0.46875 -2.109375 1.359375q-0.671875 0.875 -0.671875 2.203125q0 1.546875 0.734375 2.578125q0.734375 1.03125 1.984375 1.453125q1.234375 0.421875 2.5625 0.421875q1.703125 0 2.96875 -0.5q1.265625 -0.5 1.90625 -1.546875q0.625 -1.046875 0.625 -2.265625q0 -1.484375 -0.859375 -2.515625q-0.859375 -1.03125 -2.546875 -1.390625zm-0.15625 -3.1292114q-2.6875 0 -3.96875 -1.484375q-1.078125 -1.25 -1.078125 -3.046875q0 -1.9999847 1.3125 -3.2656097q1.296875 -1.265625 3.609375 -1.265625q1.859375 0 2.9375 0.5625q1.0625 0.5625 1.65625 1.640625q0.59375 1.0624847 0.59375 2.3281097q0 2.03125 -1.296875 3.28125q-1.3125 1.25 -3.765625 1.25zm0 -1.6875q1.859375 0 2.796875 -0.796875q0.921875 -0.8125 0.921875 -2.046875q0 -1.21875 -0.921875 -2.0312347q-0.9375 -0.8125 -2.84375 -0.8125q-1.796875 0 -2.71875 0.8125q-0.921875 0.81248474 -0.921875 2.0312347q0 1.234375 0.921875 2.046875q0.90625 0.796875 2.765625 0.796875zm4.84375 -15.563202l-1.21875 0q1.4375 0.90625 1.4375 2.703125q0 1.15625 -0.640625 2.125q-0.640625 0.96875 -1.78125 1.5q-1.140625 0.53125 -2.625 0.53125q-1.453125 0 -2.625 -0.484375q-1.1875 -0.484375 -1.8125 -1.4375q-0.625 -0.96875 -0.625 -2.171875q0 -0.875 0.375 -1.546875q0.359375 -0.6875 0.953125 -1.109375l-4.796875 0l0 -1.640625l13.359375 0l0 1.53125zm-4.828125 5.171875q1.859375 0 2.78125 -0.78125q0.921875 -0.78125 0.921875 -1.84375q0 -1.078125 -0.875 -1.828125q-0.890625 -0.75 -2.6875 -0.75q-1.984375 0 -2.90625 0.765625q-0.9375 0.765625 -0.9375 1.890625q0 1.078125 0.890625 1.8125q0.890625 0.734375 2.8125 0.734375zm1.71875 -15.906967l0.203125 -1.6875q1.484375 0.40625 2.3125 1.484375q0.8125 1.078125 0.8125 2.765625q0 2.125 -1.296875 3.375q-1.3125 1.234375 -3.671875 1.234375q-2.453125 0 -3.796875 -1.25q-1.34375 -1.265625 -1.34375 -3.265625q0 -1.9375 1.328125 -3.15625q1.3125 -1.234375 3.703125 -1.234375q0.15625 0 0.4375 0l0 7.21875q1.59375 -0.09375 2.453125 -0.90625q0.84375 -0.8125 0.84375 -2.015625q0 -0.90625 -0.46875 -1.546875q-0.484375 -0.640625 -1.515625 -1.015625zm-2.65625 5.390625l0 -5.40625q-1.21875 0.109375 -1.828125 0.625q-0.953125 0.78125 -0.953125 2.03125q0 1.125 0.765625 1.90625q0.75 0.765625 2.015625 0.84375zm5.765625 -14.449646l-13.359375 0l0 -1.78125l11.78125 0l0 -6.5625l1.578125 0l0 8.34375zm-4.84375 -9.641342q-2.6875 0 -3.96875 -1.484375q-1.078125 -1.25 -1.078125 -3.046875q0 -2.0 1.3125 -3.265625q1.296875 -1.265625 3.609375 -1.265625q1.859375 0 2.9375 0.5625q1.0625 0.5625 1.65625 1.640625q0.59375 1.0625 0.59375 2.328125q0 2.03125 -1.296875 3.28125q-1.3125 1.25 -3.765625 1.25zm0 -1.6875q1.859375 0 2.796875 -0.796875q0.921875 -0.8125 0.921875 -2.046875q0 -1.21875 -0.921875 -2.03125q-0.9375 -0.8125 -2.84375 -0.8125q-1.796875 0 -2.71875 0.8125q-0.921875 0.8125 -0.921875 2.03125q0 1.234375 0.921875 2.046875q0.90625 0.796875 2.765625 0.796875zm1.296875 -15.610092l0.21875 -1.609375q1.65625 0.265625 2.609375 1.359375q0.9375 1.078125 0.9375 2.671875q0 1.984375 -1.296875 3.1875q-1.296875 1.203125 -3.71875 1.203125q-1.578125 0 -2.75 -0.515625q-1.171875 -0.515625 -1.75 -1.578125q-0.59375 -1.0625 -0.59375 -2.3125q0 -1.578125 0.796875 -2.578125q0.796875 -1.0 2.265625 -1.28125l0.234375 1.59375q-0.96875 0.234375 -1.453125 0.8125q-0.5 0.578125 -0.5 1.390625q0 1.234375 0.890625 2.015625q0.890625 0.78125 2.8125 0.78125q1.953125 0 2.84375 -0.75q0.875 -0.75 0.875 -1.953125q0 -0.96875 -0.59375 -1.609375q-0.59375 -0.65625 -1.828125 -0.828125zm2.359375 -9.328125q0.765625 0.921875 1.09375 1.765625q0.3125 0.828125 0.3125 1.796875q0 1.59375 -0.78125 2.453125q-0.78125 0.859375 -1.984375 0.859375q-0.71875 0 -1.296875 -0.328125q-0.59375 -0.328125 -0.9375 -0.84375q-0.359375 -0.53125 -0.546875 -1.1875q-0.125 -0.46875 -0.25 -1.453125q-0.234375 -1.984375 -0.5625 -2.921875q-0.34375 -0.015625 -0.421875 -0.015625q-1.0 0 -1.421875 0.46875q-0.546875 0.625 -0.546875 1.875q0 1.15625 0.40625 1.703125q0.40625 0.546875 1.421875 0.8125l-0.21875 1.609375q-1.015625 -0.21875 -1.640625 -0.71875q-0.640625 -0.5 -0.984375 -1.453125q-0.34375 -0.953125 -0.34375 -2.1875q0 -1.25 0.296875 -2.015625q0.28125 -0.78125 0.734375 -1.140625q0.4375 -0.375 1.109375 -0.515625q0.421875 -0.078125 1.515625 -0.078125l2.1875 0q2.28125 0 2.890625 -0.109375q0.59375 -0.109375 1.15625 -0.40625l0 1.703125q-0.515625 0.265625 -1.1875 0.328125zm-3.671875 0.140625q0.375 0.890625 0.625 2.671875q0.140625 1.015625 0.328125 1.4375q0.1875 0.421875 0.53125 0.65625q0.34375 0.21875 0.78125 0.21875q0.65625 0 1.09375 -0.5q0.4375 -0.5 0.4375 -1.453125q0 -0.9375 -0.40625 -1.671875q-0.421875 -0.75 -1.140625 -1.09375q-0.5625 -0.265625 -1.640625 -0.265625l-0.609375 0zm3.390625 -7.781967l1.453125 -0.234375q0.140625 0.6875 0.140625 1.234375q0 0.890625 -0.28125 1.390625q-0.28125 0.484375 -0.734375 0.6875q-0.46875 0.203125 -1.9375 0.203125l-5.578125 0l0 1.203125l-1.265625 0l0 -1.203125l-2.390625 0l-0.984375 -1.625l3.375 0l0 -1.65625l1.265625 0l0 1.65625l5.671875 0q0.6875 0 0.890625 -0.078125q0.203125 -0.09375 0.328125 -0.28125q0.109375 -0.203125 0.109375 -0.578125q0 -0.265625 -0.0625 -0.71875zm-10.0 -1.6051788l-1.890625 0l0 -1.640625l1.890625 0l0 1.640625zm11.46875 0l-9.671875 0l0 -1.640625l9.671875 0l0 1.640625zm-4.84375 -3.5354462q-2.6875 0 -3.96875 -1.484375q-1.078125 -1.25 -1.078125 -3.046875q0 -2.0 1.3125 -3.265625q1.296875 -1.265625 3.609375 -1.265625q1.859375 0 2.9375 0.5625q1.0625 0.5625 1.65625 1.640625q0.59375 1.0625 0.59375 2.328125q0 2.03125 -1.296875 3.28125q-1.3125 1.25 -3.765625 1.25zm0 -1.6875q1.859375 0 2.796875 -0.796875q0.921875 -0.8125 0.921875 -2.046875q0 -1.21875 -0.921875 -2.03125q-0.9375 -0.8125 -2.84375 -0.8125q-1.796875 0 -2.71875 0.8125q-0.921875 0.8125 -0.921875 2.03125q0 1.234375 0.921875 2.046875q0.90625 0.796875 2.765625 0.796875zm4.84375 -9.297592l-9.671875 0l0 -1.46875l1.375 0q-1.59375 -1.0625 -1.59375 -3.078125q0 -0.875 0.3125 -1.609375q0.3125 -0.734375 0.828125 -1.09375q0.5 -0.375 1.203125 -0.515625q0.453125 -0.09375 1.59375 -0.09375l5.953125 0l0 1.640625l-5.890625 0q-1.0 0 -1.484375 0.203125q-0.5 0.1875 -0.796875 0.671875q-0.296875 0.484375 -0.296875 1.140625q0 1.046875 0.671875 1.8125q0.65625 0.75 2.515625 0.75l5.28125 0l0 1.640625z" fill-rule="nonzero"/><path fill="#b6d7a8" d="m120.0 140.0l0 0c0 -2.209137 1.790863 -4.0 4.0 -4.0l0 0c1.0608673 0 2.0782852 0.4214325 2.8284302 1.1715698c0.75014496 0.7501526 1.1715698 1.7675629 1.1715698 2.8284302l0 0c0 2.209137 -1.790863 4.0 -4.0 4.0l0 0c-2.209137 0 -4.0 -1.790863 -4.0 -4.0z" fill-rule="evenodd"/><path stroke="#000000" stroke-width="1.0" stroke-linejoin="round" stroke-linecap="butt" d="m120.0 140.0l0 0c0 -2.209137 1.790863 -4.0 4.0 -4.0l0 0c1.0608673 0 2.0782852 0.4214325 2.8284302 1.1715698c0.75014496 0.7501526 1.1715698 1.7675629 1.1715698 2.8284302l0 0c0 2.209137 -1.790863 4.0 -4.0 4.0l0 0c-2.209137 0 -4.0 -1.790863 -4.0 -4.0z" fill-rule="evenodd"/><path fill="#cfe2f3" d="m144.0 180.0l0 0c0 -2.209137 1.790863 -4.0 4.0 -4.0l0 0c1.0608673 0 2.0782776 0.4214325 2.8284302 1.1715698c0.7501373 0.7501526 1.1715698 1.7675629 1.1715698 2.8284302l0 0c0 2.209137 -1.790863 4.0 -4.0 4.0l0 0c-2.209137 0 -4.0 -1.790863 -4.0 -4.0z" fill-rule="evenodd"/><path stroke="#000000" stroke-width="1.0" stroke-linejoin="round" stroke-linecap="butt" d="m144.0 180.0l0 0c0 -2.209137 1.790863 -4.0 4.0 -4.0l0 0c1.0608673 0 2.0782776 0.4214325 2.8284302 1.1715698c0.7501373 0.7501526 1.1715698 1.7675629 1.1715698 2.8284302l0 0c0 2.209137 -1.790863 4.0 -4.0 4.0l0 0c-2.209137 0 -4.0 -1.790863 -4.0 -4.0z" fill-rule="evenodd"/><path fill="#b6d7a8" d="m200.0 124.0l0 0c0 -2.209137 1.790863 -4.0 4.0 -4.0l0 0c1.0608673 0 2.0782776 0.42142487 2.8284302 1.1715698c0.7501373 0.75014496 1.1715698 1.7675629 1.1715698 2.8284302l0 0c0 2.209137 -1.790863 4.0 -4.0 4.0l0 0c-2.209137 0 -4.0 -1.790863 -4.0 -4.0z" fill-rule="evenodd"/><path stroke="#000000" stroke-width="1.0" stroke-linejoin="round" stroke-linecap="butt" d="m200.0 124.0l0 0c0 -2.209137 1.790863 -4.0 4.0 -4.0l0 0c1.0608673 0 2.0782776 0.42142487 2.8284302 1.1715698c0.7501373 0.75014496 1.1715698 1.7675629 1.1715698 2.8284302l0 0c0 2.209137 -1.790863 4.0 -4.0 4.0l0 0c-2.209137 0 -4.0 -1.790863 -4.0 -4.0z" fill-rule="evenodd"/><path fill="#b6d7a8" d="m168.0 84.0l0 0c0 -2.209137 1.790863 -4.0 4.0 -4.0l0 0c1.0608673 0 2.0782776 0.42142487 2.8284302 1.1715698c0.7501373 0.75014496 1.1715698 1.7675629 1.1715698 2.8284302l0 0c0 2.209137 -1.790863 4.0 -4.0 4.0l0 0c-2.209137 0 -4.0 -1.790863 -4.0 -4.0z" fill-rule="evenodd"/><path stroke="#000000" stroke-width="1.0" stroke-linejoin="round" stroke-linecap="butt" d="m168.0 84.0l0 0c0 -2.209137 1.790863 -4.0 4.0 -4.0l0 0c1.0608673 0 2.0782776 0.42142487 2.8284302 1.1715698c0.7501373 0.75014496 1.1715698 1.7675629 1.1715698 2.8284302l0 0c0 2.209137 -1.790863 4.0 -4.0 4.0l0 0c-2.209137 0 -4.0 -1.790863 -4.0 -4.0z" fill-rule="evenodd"/><path fill="#cfe2f3" d="m224.0 52.0l0 0c0 -2.2091408 1.790863 -4.0 4.0 -4.0l0 0c1.0608673 0 2.0782776 0.42142868 2.8284302 1.1715736c0.7501373 0.75014496 1.1715698 1.767559 1.1715698 2.8284264l0 0c0 2.2091408 -1.790863 4.0 -4.0 4.0l0 0c-2.209137 0 -4.0 -1.7908592 -4.0 -4.0z" fill-rule="evenodd"/><path stroke="#000000" stroke-width="1.0" stroke-linejoin="round" stroke-linecap="butt" d="m224.0 52.0l0 0c0 -2.2091408 1.790863 -4.0 4.0 -4.0l0 0c1.0608673 0 2.0782776 0.42142868 2.8284302 1.1715736c0.7501373 0.75014496 1.1715698 1.767559 1.1715698 2.8284264l0 0c0 2.2091408 -1.790863 4.0 -4.0 4.0l0 0c-2.209137 0 -4.0 -1.7908592 -4.0 -4.0z" fill-rule="evenodd"/><path fill="#cfe2f3" d="m232.0 68.0l0 0c0 -2.209137 1.790863 -4.0 4.0 -4.0l0 0c1.0608673 0 2.0782776 0.42142487 2.8284302 1.1715698c0.7501373 0.75014496 1.1715698 1.7675629 1.1715698 2.8284302l0 0c0 2.209137 -1.790863 4.0 -4.0 4.0l0 0c-2.209137 0 -4.0 -1.790863 -4.0 -4.0z" fill-rule="evenodd"/><path stroke="#000000" stroke-width="1.0" stroke-linejoin="round" stroke-linecap="butt" d="m232.0 68.0l0 0c0 -2.209137 1.790863 -4.0 4.0 -4.0l0 0c1.0608673 0 2.0782776 0.42142487 2.8284302 1.1715698c0.7501373 0.75014496 1.1715698 1.7675629 1.1715698 2.8284302l0 0c0 2.209137 -1.790863 4.0 -4.0 4.0l0 0c-2.209137 0 -4.0 -1.790863 -4.0 -4.0z" fill-rule="evenodd"/><path fill="#b6d7a8" d="m88.0 156.0l0 0c0 -2.209137 1.790863 -4.0 4.0 -4.0l0 0c1.0608673 0 2.0782852 0.4214325 2.8284302 1.1715698c0.75014496 0.7501526 1.1715698 1.7675629 1.1715698 2.8284302l0 0c0 2.209137 -1.790863 4.0 -4.0 4.0l0 0c-2.209137 0 -4.0 -1.790863 -4.0 -4.0z" fill-rule="evenodd"/><path stroke="#000000" stroke-width="1.0" stroke-linejoin="round" stroke-linecap="butt" d="m88.0 156.0l0 0c0 -2.209137 1.790863 -4.0 4.0 -4.0l0 0c1.0608673 0 2.0782852 0.4214325 2.8284302 1.1715698c0.75014496 0.7501526 1.1715698 1.7675629 1.1715698 2.8284302l0 0c0 2.209137 -1.790863 4.0 -4.0 4.0l0 0c-2.209137 0 -4.0 -1.790863 -4.0 -4.0z" fill-rule="evenodd"/><path fill="#b6d7a8" d="m328.0 132.0l0 0c0 -2.209137 1.790863 -4.0 4.0 -4.0l0 0c1.060852 0 2.0782776 0.4214325 2.8284302 1.1715698c0.7501526 0.7501526 1.1715698 1.7675629 1.1715698 2.8284302l0 0c0 2.209137 -1.790863 4.0 -4.0 4.0l0 0c-2.209137 0 -4.0 -1.790863 -4.0 -4.0z" fill-rule="evenodd"/><path stroke="#000000" stroke-width="1.0" stroke-linejoin="round" stroke-linecap="butt" d="m328.0 132.0l0 0c0 -2.209137 1.790863 -4.0 4.0 -4.0l0 0c1.060852 0 2.0782776 0.4214325 2.8284302 1.1715698c0.7501526 0.7501526 1.1715698 1.7675629 1.1715698 2.8284302l0 0c0 2.209137 -1.790863 4.0 -4.0 4.0l0 0c-2.209137 0 -4.0 -1.790863 -4.0 -4.0z" fill-rule="evenodd"/><path fill="#b6d7a8" d="m352.0 316.0l0 0c0 -2.209137 1.790863 -4.0 4.0 -4.0l0 0c1.060852 0 2.0782776 0.42141724 2.8284302 1.1715698c0.7501526 0.7501526 1.1715698 1.7675781 1.1715698 2.8284302l0 0c0 2.209137 -1.790863 4.0 -4.0 4.0l0 0c-2.209137 0 -4.0 -1.790863 -4.0 -4.0z" fill-rule="evenodd"/><path stroke="#000000" stroke-width="1.0" stroke-linejoin="round" stroke-linecap="butt" d="m352.0 316.0l0 0c0 -2.209137 1.790863 -4.0 4.0 -4.0l0 0c1.060852 0 2.0782776 0.42141724 2.8284302 1.1715698c0.7501526 0.7501526 1.1715698 1.7675781 1.1715698 2.8284302l0 0c0 2.209137 -1.790863 4.0 -4.0 4.0l0 0c-2.209137 0 -4.0 -1.790863 -4.0 -4.0z" fill-rule="evenodd"/><path fill="#f6b26b" d="m376.0 356.0l0 0c0 -2.209137 1.790863 -4.0 4.0 -4.0l0 0c1.060852 0 2.0782776 0.42141724 2.8284302 1.1715698c0.7501526 0.7501526 1.1715698 1.7675781 1.1715698 2.8284302l0 0c0 2.209137 -1.790863 4.0 -4.0 4.0l0 0c-2.209137 0 -4.0 -1.790863 -4.0 -4.0z" fill-rule="evenodd"/><path stroke="#000000" stroke-width="1.0" stroke-linejoin="round" stroke-linecap="butt" d="m376.0 356.0l0 0c0 -2.209137 1.790863 -4.0 4.0 -4.0l0 0c1.060852 0 2.0782776 0.42141724 2.8284302 1.1715698c0.7501526 0.7501526 1.1715698 1.7675781 1.1715698 2.8284302l0 0c0 2.209137 -1.790863 4.0 -4.0 4.0l0 0c-2.209137 0 -4.0 -1.790863 -4.0 -4.0z" fill-rule="evenodd"/><path fill="#cfe2f3" d="m432.0 260.0l0 0c0 -2.209137 1.790863 -4.0 4.0 -4.0l0 0c1.060852 0 2.0782776 0.42141724 2.8284302 1.1715698c0.7501526 0.7501526 1.1715698 1.7675781 1.1715698 2.8284302l0 0c0 2.209137 -1.790863 4.0 -4.0 4.0l0 0c-2.209137 0 -4.0 -1.790863 -4.0 -4.0z" fill-rule="evenodd"/><path stroke="#000000" stroke-width="1.0" stroke-linejoin="round" stroke-linecap="butt" d="m432.0 260.0l0 0c0 -2.209137 1.790863 -4.0 4.0 -4.0l0 0c1.060852 0 2.0782776 0.42141724 2.8284302 1.1715698c0.7501526 0.7501526 1.1715698 1.7675781 1.1715698 2.8284302l0 0c0 2.209137 -1.790863 4.0 -4.0 4.0l0 0c-2.209137 0 -4.0 -1.790863 -4.0 -4.0z" fill-rule="evenodd"/><path fill="#b6d7a8" d="m528.0 380.0l0 0c0 -2.209137 1.7908325 -4.0 4.0 -4.0l0 0c1.060852 0 2.078308 0.42141724 2.8284302 1.1715698c0.7501221 0.7501526 1.1715698 1.7675781 1.1715698 2.8284302l0 0c0 2.209137 -1.7908325 4.0 -4.0 4.0l0 0c-2.2091675 0 -4.0 -1.790863 -4.0 -4.0z" fill-rule="evenodd"/><path stroke="#000000" stroke-width="1.0" stroke-linejoin="round" stroke-linecap="butt" d="m528.0 380.0l0 0c0 -2.209137 1.7908325 -4.0 4.0 -4.0l0 0c1.060852 0 2.078308 0.42141724 2.8284302 1.1715698c0.7501221 0.7501526 1.1715698 1.7675781 1.1715698 2.8284302l0 0c0 2.209137 -1.7908325 4.0 -4.0 4.0l0 0c-2.2091675 0 -4.0 -1.790863 -4.0 -4.0z" fill-rule="evenodd"/><path fill="#b6d7a8" d="m536.0 268.0l0 0c0 -2.209137 1.7908325 -4.0 4.0 -4.0l0 0c1.060852 0 2.078308 0.42141724 2.8284302 1.1715698c0.7501221 0.7501526 1.1715698 1.7675781 1.1715698 2.8284302l0 0c0 2.209137 -1.7908325 4.0 -4.0 4.0l0 0c-2.2091675 0 -4.0 -1.790863 -4.0 -4.0z" fill-rule="evenodd"/><path stroke="#000000" stroke-width="1.0" stroke-linejoin="round" stroke-linecap="butt" d="m536.0 268.0l0 0c0 -2.209137 1.7908325 -4.0 4.0 -4.0l0 0c1.060852 0 2.078308 0.42141724 2.8284302 1.1715698c0.7501221 0.7501526 1.1715698 1.7675781 1.1715698 2.8284302l0 0c0 2.209137 -1.7908325 4.0 -4.0 4.0l0 0c-2.2091675 0 -4.0 -1.790863 -4.0 -4.0z" fill-rule="evenodd"/><path fill="#cfe2f3" d="m400.0 284.0l0 0c0 -2.209137 1.790863 -4.0 4.0 -4.0l0 0c1.060852 0 2.0782776 0.42141724 2.8284302 1.1715698c0.7501526 0.7501526 1.1715698 1.7675781 1.1715698 2.8284302l0 0c0 2.209137 -1.790863 4.0 -4.0 4.0l0 0c-2.209137 0 -4.0 -1.790863 -4.0 -4.0z" fill-rule="evenodd"/><path stroke="#000000" stroke-width="1.0" stroke-linejoin="round" stroke-linecap="butt" d="m400.0 284.0l0 0c0 -2.209137 1.790863 -4.0 4.0 -4.0l0 0c1.060852 0 2.0782776 0.42141724 2.8284302 1.1715698c0.7501526 0.7501526 1.1715698 1.7675781 1.1715698 2.8284302l0 0c0 2.209137 -1.790863 4.0 -4.0 4.0l0 0c-2.209137 0 -4.0 -1.790863 -4.0 -4.0z" fill-rule="evenodd"/><path fill="#b6d7a8" d="m416.0 172.0l0 0c0 -2.209137 1.790863 -4.0 4.0 -4.0l0 0c1.060852 0 2.0782776 0.4214325 2.8284302 1.1715698c0.7501526 0.7501526 1.1715698 1.7675629 1.1715698 2.8284302l0 0c0 2.209137 -1.790863 4.0 -4.0 4.0l0 0c-2.209137 0 -4.0 -1.790863 -4.0 -4.0z" fill-rule="evenodd"/><path stroke="#000000" stroke-width="1.0" stroke-linejoin="round" stroke-linecap="butt" d="m416.0 172.0l0 0c0 -2.209137 1.790863 -4.0 4.0 -4.0l0 0c1.060852 0 2.0782776 0.4214325 2.8284302 1.1715698c0.7501526 0.7501526 1.1715698 1.7675629 1.1715698 2.8284302l0 0c0 2.209137 -1.790863 4.0 -4.0 4.0l0 0c-2.209137 0 -4.0 -1.790863 -4.0 -4.0z" fill-rule="evenodd"/><path fill="#b6d7a8" d="m560.0 132.0l0 0c0 -2.209137 1.7908325 -4.0 4.0 -4.0l0 0c1.060852 0 2.078308 0.4214325 2.8284302 1.1715698c0.7501221 0.7501526 1.1715698 1.7675629 1.1715698 2.8284302l0 0c0 2.209137 -1.7908325 4.0 -4.0 4.0l0 0c-2.2091675 0 -4.0 -1.790863 -4.0 -4.0z" fill-rule="evenodd"/><path stroke="#000000" stroke-width="1.0" stroke-linejoin="round" stroke-linecap="butt" d="m560.0 132.0l0 0c0 -2.209137 1.7908325 -4.0 4.0 -4.0l0 0c1.060852 0 2.078308 0.4214325 2.8284302 1.1715698c0.7501221 0.7501526 1.1715698 1.7675629 1.1715698 2.8284302l0 0c0 2.209137 -1.7908325 4.0 -4.0 4.0l0 0c-2.2091675 0 -4.0 -1.790863 -4.0 -4.0z" fill-rule="evenodd"/><path fill="#ff0000" d="m592.0 196.0l0 0c0 -2.209137 1.7908325 -4.0 4.0 -4.0l0 0c1.060852 0 2.078308 0.4214325 2.8284302 1.1715698c0.7501221 0.7501526 1.1715698 1.7675629 1.1715698 2.8284302l0 0c0 2.209137 -1.7908325 4.0 -4.0 4.0l0 0c-2.2091675 0 -4.0 -1.790863 -4.0 -4.0z" fill-rule="evenodd"/><path stroke="#000000" stroke-width="1.0" stroke-linejoin="round" stroke-linecap="butt" d="m592.0 196.0l0 0c0 -2.209137 1.7908325 -4.0 4.0 -4.0l0 0c1.060852 0 2.078308 0.4214325 2.8284302 1.1715698c0.7501221 0.7501526 1.1715698 1.7675629 1.1715698 2.8284302l0 0c0 2.209137 -1.7908325 4.0 -4.0 4.0l0 0c-2.2091675 0 -4.0 -1.790863 -4.0 -4.0z" fill-rule="evenodd"/><path fill="#c9daf8" d="m544.0 92.0l0 0c0 -2.209137 1.7908325 -4.0 4.0 -4.0l0 0c1.060852 0 2.078308 0.42142487 2.8284302 1.1715698c0.7501221 0.75014496 1.1715698 1.7675629 1.1715698 2.8284302l0 0c0 2.209137 -1.7908325 4.0 -4.0 4.0l0 0c-2.2091675 0 -4.0 -1.790863 -4.0 -4.0z" fill-rule="evenodd"/><path stroke="#000000" stroke-width="1.0" stroke-linejoin="round" stroke-linecap="butt" d="m544.0 92.0l0 0c0 -2.209137 1.7908325 -4.0 4.0 -4.0l0 0c1.060852 0 2.078308 0.42142487 2.8284302 1.1715698c0.7501221 0.75014496 1.1715698 1.7675629 1.1715698 2.8284302l0 0c0 2.209137 -1.7908325 4.0 -4.0 4.0l0 0c-2.2091675 0 -4.0 -1.790863 -4.0 -4.0z" fill-rule="evenodd"/><path fill="#cfe2f3" d="m240.0 52.0l0 0c0 -2.2091408 1.790863 -4.0 4.0 -4.0l0 0c1.0608673 0 2.0782776 0.42142868 2.8284302 1.1715736c0.7501373 0.75014496 1.1715698 1.767559 1.1715698 2.8284264l0 0c0 2.2091408 -1.790863 4.0 -4.0 4.0l0 0c-2.209137 0 -4.0 -1.7908592 -4.0 -4.0z" fill-rule="evenodd"/><path stroke="#000000" stroke-width="1.0" stroke-linejoin="round" stroke-linecap="butt" d="m240.0 52.0l0 0c0 -2.2091408 1.790863 -4.0 4.0 -4.0l0 0c1.0608673 0 2.0782776 0.42142868 2.8284302 1.1715736c0.7501373 0.75014496 1.1715698 1.767559 1.1715698 2.8284264l0 0c0 2.2091408 -1.790863 4.0 -4.0 4.0l0 0c-2.209137 0 -4.0 -1.7908592 -4.0 -4.0z" fill-rule="evenodd"/><path fill="#cfe2f3" d="m248.0 68.0l0 0c0 -2.209137 1.790863 -4.0 4.0 -4.0l0 0c1.0608673 0 2.0782776 0.42142487 2.8284302 1.1715698c0.7501373 0.75014496 1.1715698 1.7675629 1.1715698 2.8284302l0 0c0 2.209137 -1.790863 4.0 -4.0 4.0l0 0c-2.209137 0 -4.0 -1.790863 -4.0 -4.0z" fill-rule="evenodd"/><path stroke="#000000" stroke-width="1.0" stroke-linejoin="round" stroke-linecap="butt" d="m248.0 68.0l0 0c0 -2.209137 1.790863 -4.0 4.0 -4.0l0 0c1.0608673 0 2.0782776 0.42142487 2.8284302 1.1715698c0.7501373 0.75014496 1.1715698 1.7675629 1.1715698 2.8284302l0 0c0 2.209137 -1.790863 4.0 -4.0 4.0l0 0c-2.209137 0 -4.0 -1.790863 -4.0 -4.0z" fill-rule="evenodd"/><path fill="#cfe2f3" d="m256.0 52.0l0 0c0 -2.2091408 1.790863 -4.0 4.0 -4.0l0 0c1.060852 0 2.0782776 0.42142868 2.8284302 1.1715736c0.7501526 0.75014496 1.1715698 1.767559 1.1715698 2.8284264l0 0c0 2.2091408 -1.790863 4.0 -4.0 4.0l0 0c-2.209137 0 -4.0 -1.7908592 -4.0 -4.0z" fill-rule="evenodd"/><path stroke="#000000" stroke-width="1.0" stroke-linejoin="round" stroke-linecap="butt" d="m256.0 52.0l0 0c0 -2.2091408 1.790863 -4.0 4.0 -4.0l0 0c1.060852 0 2.0782776 0.42142868 2.8284302 1.1715736c0.7501526 0.75014496 1.1715698 1.767559 1.1715698 2.8284264l0 0c0 2.2091408 -1.790863 4.0 -4.0 4.0l0 0c-2.209137 0 -4.0 -1.7908592 -4.0 -4.0z" fill-rule="evenodd"/><path fill="#cfe2f3" d="m264.0 68.0l0 0c0 -2.209137 1.790863 -4.0 4.0 -4.0l0 0c1.060852 0 2.0782776 0.42142487 2.8284302 1.1715698c0.7501526 0.75014496 1.1715698 1.7675629 1.1715698 2.8284302l0 0c0 2.209137 -1.790863 4.0 -4.0 4.0l0 0c-2.209137 0 -4.0 -1.790863 -4.0 -4.0z" fill-rule="evenodd"/><path stroke="#000000" stroke-width="1.0" stroke-linejoin="round" stroke-linecap="butt" d="m264.0 68.0l0 0c0 -2.209137 1.790863 -4.0 4.0 -4.0l0 0c1.060852 0 2.0782776 0.42142487 2.8284302 1.1715698c0.7501526 0.75014496 1.1715698 1.7675629 1.1715698 2.8284302l0 0c0 2.209137 -1.790863 4.0 -4.0 4.0l0 0c-2.209137 0 -4.0 -1.790863 -4.0 -4.0z" fill-rule="evenodd"/><path fill="#cfe2f3" d="m272.0 52.0l0 0c0 -2.2091408 1.790863 -4.0 4.0 -4.0l0 0c1.060852 0 2.0782776 0.42142868 2.8284302 1.1715736c0.7501526 0.75014496 1.1715698 1.767559 1.1715698 2.8284264l0 0c0 2.2091408 -1.790863 4.0 -4.0 4.0l0 0c-2.209137 0 -4.0 -1.7908592 -4.0 -4.0z" fill-rule="evenodd"/><path stroke="#000000" stroke-width="1.0" stroke-linejoin="round" stroke-linecap="butt" d="m272.0 52.0l0 0c0 -2.2091408 1.790863 -4.0 4.0 -4.0l0 0c1.060852 0 2.0782776 0.42142868 2.8284302 1.1715736c0.7501526 0.75014496 1.1715698 1.767559 1.1715698 2.8284264l0 0c0 2.2091408 -1.790863 4.0 -4.0 4.0l0 0c-2.209137 0 -4.0 -1.7908592 -4.0 -4.0z" fill-rule="evenodd"/><path fill="#cfe2f3" d="m280.0 68.0l0 0c0 -2.209137 1.790863 -4.0 4.0 -4.0l0 0c1.060852 0 2.0782776 0.42142487 2.8284302 1.1715698c0.7501526 0.75014496 1.1715698 1.7675629 1.1715698 2.8284302l0 0c0 2.209137 -1.790863 4.0 -4.0 4.0l0 0c-2.209137 0 -4.0 -1.790863 -4.0 -4.0z" fill-rule="evenodd"/><path stroke="#000000" stroke-width="1.0" stroke-linejoin="round" stroke-linecap="butt" d="m280.0 68.0l0 0c0 -2.209137 1.790863 -4.0 4.0 -4.0l0 0c1.060852 0 2.0782776 0.42142487 2.8284302 1.1715698c0.7501526 0.75014496 1.1715698 1.7675629 1.1715698 2.8284302l0 0c0 2.209137 -1.790863 4.0 -4.0 4.0l0 0c-2.209137 0 -4.0 -1.790863 -4.0 -4.0z" fill-rule="evenodd"/><path fill="#cfe2f3" d="m288.0 52.0l0 0c0 -2.2091408 1.790863 -4.0 4.0 -4.0l0 0c1.060852 0 2.0782776 0.42142868 2.8284302 1.1715736c0.7501526 0.75014496 1.1715698 1.767559 1.1715698 2.8284264l0 0c0 2.2091408 -1.790863 4.0 -4.0 4.0l0 0c-2.209137 0 -4.0 -1.7908592 -4.0 -4.0z" fill-rule="evenodd"/><path stroke="#000000" stroke-width="1.0" stroke-linejoin="round" stroke-linecap="butt" d="m288.0 52.0l0 0c0 -2.2091408 1.790863 -4.0 4.0 -4.0l0 0c1.060852 0 2.0782776 0.42142868 2.8284302 1.1715736c0.7501526 0.75014496 1.1715698 1.767559 1.1715698 2.8284264l0 0c0 2.2091408 -1.790863 4.0 -4.0 4.0l0 0c-2.209137 0 -4.0 -1.7908592 -4.0 -4.0z" fill-rule="evenodd"/><path fill="#cfe2f3" d="m296.0 68.0l0 0c0 -2.209137 1.790863 -4.0 4.0 -4.0l0 0c1.060852 0 2.0782776 0.42142487 2.8284302 1.1715698c0.7501526 0.75014496 1.1715698 1.7675629 1.1715698 2.8284302l0 0c0 2.209137 -1.790863 4.0 -4.0 4.0l0 0c-2.209137 0 -4.0 -1.790863 -4.0 -4.0z" fill-rule="evenodd"/><path stroke="#000000" stroke-width="1.0" stroke-linejoin="round" stroke-linecap="butt" d="m296.0 68.0l0 0c0 -2.209137 1.790863 -4.0 4.0 -4.0l0 0c1.060852 0 2.0782776 0.42142487 2.8284302 1.1715698c0.7501526 0.75014496 1.1715698 1.7675629 1.1715698 2.8284302l0 0c0 2.209137 -1.790863 4.0 -4.0 4.0l0 0c-2.209137 0 -4.0 -1.790863 -4.0 -4.0z" fill-rule="evenodd"/><path fill="#000000" fill-opacity="0.0" d="m94.82843 153.17157l26.330704 -10.330704" fill-rule="evenodd"/><path stroke="#000000" stroke-width="1.0" stroke-linejoin="round" stroke-linecap="butt" d="m94.82843 153.17157l26.330704 -10.330704" fill-rule="evenodd"/><path fill="#000000" fill-opacity="0.0" d="m126.82843 142.82843l18.330704 34.330704" fill-rule="evenodd"/><path stroke="#000000" stroke-width="1.0" stroke-linejoin="round" stroke-linecap="butt" d="m126.82843 142.82843l18.330704 34.330704" fill-rule="evenodd"/><path fill="#000000" fill-opacity="0.0" d="m150.82843 177.17157l18.330704 -90.3307" fill-rule="evenodd"/><path stroke="#000000" stroke-width="1.0" stroke-linejoin="round" stroke-linecap="butt" d="m150.82843 177.17157l18.330704 -90.3307" fill-rule="evenodd"/><path fill="#000000" fill-opacity="0.0" d="m174.82843 86.82843l26.330704 34.330704" fill-rule="evenodd"/><path stroke="#000000" stroke-width="1.0" stroke-linejoin="round" stroke-linecap="butt" d="m174.82843 86.82843l26.330704 34.330704" fill-rule="evenodd"/><path fill="#000000" fill-opacity="0.0" d="m206.82843 121.17157l18.330704 -66.3307" fill-rule="evenodd"/><path stroke="#000000" stroke-width="1.0" stroke-linejoin="round" stroke-linecap="butt" d="m206.82843 121.17157l18.330704 -66.3307" fill-rule="evenodd"/><path fill="#000000" fill-opacity="0.0" d="m230.82843 54.828426l2.3307037 10.330708" fill-rule="evenodd"/><path stroke="#000000" stroke-width="1.0" stroke-linejoin="round" stroke-linecap="butt" d="m230.82843 54.828426l2.3307037 10.330708" fill-rule="evenodd"/><path fill="#000000" fill-opacity="0.0" d="m238.82843 65.17157l2.3307037 -10.330704" fill-rule="evenodd"/><path stroke="#000000" stroke-width="1.0" stroke-linejoin="round" stroke-linecap="butt" d="m238.82843 65.17157l2.3307037 -10.330704" fill-rule="evenodd"/><path fill="#000000" fill-opacity="0.0" d="m246.84087 54.840866l2.3307037 10.330704" fill-rule="evenodd"/><path stroke="#000000" stroke-width="1.0" stroke-linejoin="round" stroke-linecap="butt" d="m246.84087 54.840866l2.3307037 10.330704" fill-rule="evenodd"/><path fill="#000000" fill-opacity="0.0" d="m254.84087 65.159134l2.3307037 -10.330708" fill-rule="evenodd"/><path stroke="#000000" stroke-width="1.0" stroke-linejoin="round" stroke-linecap="butt" d="m254.84087 65.159134l2.3307037 -10.330708" fill-rule="evenodd"/><path fill="#000000" fill-opacity="0.0" d="m262.82843 54.828426l2.330719 10.330708" fill-rule="evenodd"/><path stroke="#000000" stroke-width="1.0" stroke-linejoin="round" stroke-linecap="butt" d="m262.82843 54.828426l2.330719 10.330708" fill-rule="evenodd"/><path fill="#000000" fill-opacity="0.0" d="m270.84085 65.159134l2.330719 -10.330708" fill-rule="evenodd"/><path stroke="#000000" stroke-width="1.0" stroke-linejoin="round" stroke-linecap="butt" d="m270.84085 65.159134l2.330719 -10.330708" fill-rule="evenodd"/><path fill="#000000" fill-opacity="0.0" d="m278.82843 54.828426l2.330719 10.330708" fill-rule="evenodd"/><path stroke="#000000" stroke-width="1.0" stroke-linejoin="round" stroke-linecap="butt" d="m278.82843 54.828426l2.330719 10.330708" fill-rule="evenodd"/><path fill="#000000" fill-opacity="0.0" d="m286.84085 65.159134l2.330719 -10.330708" fill-rule="evenodd"/><path stroke="#000000" stroke-width="1.0" stroke-linejoin="round" stroke-linecap="butt" d="m286.84085 65.159134l2.330719 -10.330708" fill-rule="evenodd"/><path fill="#000000" fill-opacity="0.0" d="m294.82843 54.828426l2.330719 10.330708" fill-rule="evenodd"/><path stroke="#000000" stroke-width="1.0" stroke-linejoin="round" stroke-linecap="butt" d="m294.82843 54.828426l2.330719 10.330708" fill-rule="evenodd"/><path fill="#000000" fill-opacity="0.0" d="m302.82843 70.82843l26.330719 58.330704" fill-rule="evenodd"/><path stroke="#000000" stroke-width="1.0" stroke-linejoin="round" stroke-linecap="butt" d="m302.82843 70.82843l26.330719 58.330704" fill-rule="evenodd"/><path fill="#000000" fill-opacity="0.0" d="m334.82843 134.82843l18.330719 178.33072" fill-rule="evenodd"/><path stroke="#000000" stroke-width="1.0" stroke-linejoin="round" stroke-linecap="butt" d="m334.82843 134.82843l18.330719 178.33072" fill-rule="evenodd"/><path fill="#000000" fill-opacity="0.0" d="m358.82843 318.82843l18.330719 34.33072" fill-rule="evenodd"/><path stroke="#000000" stroke-width="1.0" stroke-linejoin="round" stroke-linecap="butt" d="m358.82843 318.82843l18.330719 34.33072" fill-rule="evenodd"/><path fill="#000000" fill-opacity="0.0" d="m382.82843 353.17157l18.330719 -66.33072" fill-rule="evenodd"/><path stroke="#000000" stroke-width="1.0" stroke-linejoin="round" stroke-linecap="butt" d="m382.82843 353.17157l18.330719 -66.33072" fill-rule="evenodd"/><path fill="#000000" fill-opacity="0.0" d="m406.82843 281.17157l10.330719 -106.3307" fill-rule="evenodd"/><path stroke="#000000" stroke-width="1.0" stroke-linejoin="round" stroke-linecap="butt" d="m406.82843 281.17157l10.330719 -106.3307" fill-rule="evenodd"/><path fill="#d9d9d9" d="m448.0 236.0l0 0c0 -2.209137 1.790863 -4.0 4.0 -4.0l0 0c1.060852 0 2.0782776 0.4214325 2.8284302 1.1715698c0.7501526 0.7501526 1.1715698 1.7675629 1.1715698 2.8284302l0 0c0 2.209137 -1.790863 4.0 -4.0 4.0l0 0c-2.209137 0 -4.0 -1.790863 -4.0 -4.0z" fill-rule="evenodd"/><path stroke="#000000" stroke-width="1.0" stroke-linejoin="round" stroke-linecap="butt" d="m448.0 236.0l0 0c0 -2.209137 1.790863 -4.0 4.0 -4.0l0 0c1.060852 0 2.0782776 0.4214325 2.8284302 1.1715698c0.7501526 0.7501526 1.1715698 1.7675629 1.1715698 2.8284302l0 0c0 2.209137 -1.790863 4.0 -4.0 4.0l0 0c-2.209137 0 -4.0 -1.790863 -4.0 -4.0z" fill-rule="evenodd"/><path fill="#d9d9d9" d="m456.0 252.0l0 0c0 -2.209137 1.790863 -4.0 4.0 -4.0l0 0c1.060852 0 2.0782776 0.4214325 2.8284302 1.1715698c0.7501526 0.7501526 1.1715698 1.7675629 1.1715698 2.8284302l0 0c0 2.209137 -1.790863 4.0 -4.0 4.0l0 0c-2.209137 0 -4.0 -1.790863 -4.0 -4.0z" fill-rule="evenodd"/><path stroke="#000000" stroke-width="1.0" stroke-linejoin="round" stroke-linecap="butt" d="m456.0 252.0l0 0c0 -2.209137 1.790863 -4.0 4.0 -4.0l0 0c1.060852 0 2.0782776 0.4214325 2.8284302 1.1715698c0.7501526 0.7501526 1.1715698 1.7675629 1.1715698 2.8284302l0 0c0 2.209137 -1.790863 4.0 -4.0 4.0l0 0c-2.209137 0 -4.0 -1.790863 -4.0 -4.0z" fill-rule="evenodd"/><path fill="#d9d9d9" d="m464.0 236.0l0 0c0 -2.209137 1.790863 -4.0 4.0 -4.0l0 0c1.060852 0 2.0782776 0.4214325 2.8284302 1.1715698c0.7501526 0.7501526 1.1715698 1.7675629 1.1715698 2.8284302l0 0c0 2.209137 -1.790863 4.0 -4.0 4.0l0 0c-2.209137 0 -4.0 -1.790863 -4.0 -4.0z" fill-rule="evenodd"/><path stroke="#000000" stroke-width="1.0" stroke-linejoin="round" stroke-linecap="butt" d="m464.0 236.0l0 0c0 -2.209137 1.790863 -4.0 4.0 -4.0l0 0c1.060852 0 2.0782776 0.4214325 2.8284302 1.1715698c0.7501526 0.7501526 1.1715698 1.7675629 1.1715698 2.8284302l0 0c0 2.209137 -1.790863 4.0 -4.0 4.0l0 0c-2.209137 0 -4.0 -1.790863 -4.0 -4.0z" fill-rule="evenodd"/><path fill="#d9d9d9" d="m472.0 252.0l0 0c0 -2.209137 1.790863 -4.0 4.0 -4.0l0 0c1.060852 0 2.0782776 0.4214325 2.8284302 1.1715698c0.7501526 0.7501526 1.1715698 1.7675629 1.1715698 2.8284302l0 0c0 2.209137 -1.790863 4.0 -4.0 4.0l0 0c-2.209137 0 -4.0 -1.790863 -4.0 -4.0z" fill-rule="evenodd"/><path stroke="#000000" stroke-width="1.0" stroke-linejoin="round" stroke-linecap="butt" d="m472.0 252.0l0 0c0 -2.209137 1.790863 -4.0 4.0 -4.0l0 0c1.060852 0 2.0782776 0.4214325 2.8284302 1.1715698c0.7501526 0.7501526 1.1715698 1.7675629 1.1715698 2.8284302l0 0c0 2.209137 -1.790863 4.0 -4.0 4.0l0 0c-2.209137 0 -4.0 -1.790863 -4.0 -4.0z" fill-rule="evenodd"/><path fill="#d9d9d9" d="m480.0 236.0l0 0c0 -2.209137 1.790863 -4.0 4.0 -4.0l0 0c1.060852 0 2.0782776 0.4214325 2.8284302 1.1715698c0.7501526 0.7501526 1.1715698 1.7675629 1.1715698 2.8284302l0 0c0 2.209137 -1.790863 4.0 -4.0 4.0l0 0c-2.209137 0 -4.0 -1.790863 -4.0 -4.0z" fill-rule="evenodd"/><path stroke="#000000" stroke-width="1.0" stroke-linejoin="round" stroke-linecap="butt" d="m480.0 236.0l0 0c0 -2.209137 1.790863 -4.0 4.0 -4.0l0 0c1.060852 0 2.0782776 0.4214325 2.8284302 1.1715698c0.7501526 0.7501526 1.1715698 1.7675629 1.1715698 2.8284302l0 0c0 2.209137 -1.790863 4.0 -4.0 4.0l0 0c-2.209137 0 -4.0 -1.790863 -4.0 -4.0z" fill-rule="evenodd"/><path fill="#d9d9d9" d="m488.0 252.0l0 0c0 -2.209137 1.790863 -4.0 4.0 -4.0l0 0c1.060852 0 2.0782776 0.4214325 2.8284302 1.1715698c0.7501526 0.7501526 1.1715698 1.7675629 1.1715698 2.8284302l0 0c0 2.209137 -1.790863 4.0 -4.0 4.0l0 0c-2.209137 0 -4.0 -1.790863 -4.0 -4.0z" fill-rule="evenodd"/><path stroke="#000000" stroke-width="1.0" stroke-linejoin="round" stroke-linecap="butt" d="m488.0 252.0l0 0c0 -2.209137 1.790863 -4.0 4.0 -4.0l0 0c1.060852 0 2.0782776 0.4214325 2.8284302 1.1715698c0.7501526 0.7501526 1.1715698 1.7675629 1.1715698 2.8284302l0 0c0 2.209137 -1.790863 4.0 -4.0 4.0l0 0c-2.209137 0 -4.0 -1.790863 -4.0 -4.0z" fill-rule="evenodd"/><path fill="#d9d9d9" d="m496.0 236.0l0 0c0 -2.209137 1.790863 -4.0 4.0 -4.0l0 0c1.060852 0 2.0782776 0.4214325 2.8284302 1.1715698c0.7501526 0.7501526 1.1715698 1.7675629 1.1715698 2.8284302l0 0c0 2.209137 -1.790863 4.0 -4.0 4.0l0 0c-2.209137 0 -4.0 -1.790863 -4.0 -4.0z" fill-rule="evenodd"/><path stroke="#000000" stroke-width="1.0" stroke-linejoin="round" stroke-linecap="butt" d="m496.0 236.0l0 0c0 -2.209137 1.790863 -4.0 4.0 -4.0l0 0c1.060852 0 2.0782776 0.4214325 2.8284302 1.1715698c0.7501526 0.7501526 1.1715698 1.7675629 1.1715698 2.8284302l0 0c0 2.209137 -1.790863 4.0 -4.0 4.0l0 0c-2.209137 0 -4.0 -1.790863 -4.0 -4.0z" fill-rule="evenodd"/><path fill="#d9d9d9" d="m504.0 252.0l0 0c0 -2.209137 1.790863 -4.0 4.0 -4.0l0 0c1.060852 0 2.0782776 0.4214325 2.8284302 1.1715698c0.7501526 0.7501526 1.1715698 1.7675629 1.1715698 2.8284302l0 0c0 2.209137 -1.790863 4.0 -4.0 4.0l0 0c-2.209137 0 -4.0 -1.790863 -4.0 -4.0z" fill-rule="evenodd"/><path stroke="#000000" stroke-width="1.0" stroke-linejoin="round" stroke-linecap="butt" d="m504.0 252.0l0 0c0 -2.209137 1.790863 -4.0 4.0 -4.0l0 0c1.060852 0 2.0782776 0.4214325 2.8284302 1.1715698c0.7501526 0.7501526 1.1715698 1.7675629 1.1715698 2.8284302l0 0c0 2.209137 -1.790863 4.0 -4.0 4.0l0 0c-2.209137 0 -4.0 -1.790863 -4.0 -4.0z" fill-rule="evenodd"/><path fill="#000000" fill-opacity="0.0" d="m454.82843 238.82843l2.330719 10.330704" fill-rule="evenodd"/><path stroke="#000000" stroke-width="1.0" stroke-linejoin="round" stroke-linecap="butt" d="m454.82843 238.82843l2.330719 10.330704" fill-rule="evenodd"/><path fill="#000000" fill-opacity="0.0" d="m462.82843 249.17157l2.330719 -10.330704" fill-rule="evenodd"/><path stroke="#000000" stroke-width="1.0" stroke-linejoin="round" stroke-linecap="butt" d="m462.82843 249.17157l2.330719 -10.330704" fill-rule="evenodd"/><path fill="#000000" fill-opacity="0.0" d="m470.84085 238.84087l2.330719 10.330704" fill-rule="evenodd"/><path stroke="#000000" stroke-width="1.0" stroke-linejoin="round" stroke-linecap="butt" d="m470.84085 238.84087l2.330719 10.330704" fill-rule="evenodd"/><path fill="#000000" fill-opacity="0.0" d="m478.84085 249.15913l2.330719 -10.330704" fill-rule="evenodd"/><path stroke="#000000" stroke-width="1.0" stroke-linejoin="round" stroke-linecap="butt" d="m478.84085 249.15913l2.330719 -10.330704" fill-rule="evenodd"/><path fill="#000000" fill-opacity="0.0" d="m486.82843 238.82843l2.330719 10.330704" fill-rule="evenodd"/><path stroke="#000000" stroke-width="1.0" stroke-linejoin="round" stroke-linecap="butt" d="m486.82843 238.82843l2.330719 10.330704" fill-rule="evenodd"/><path fill="#000000" fill-opacity="0.0" d="m494.84085 249.15913l2.330719 -10.330704" fill-rule="evenodd"/><path stroke="#000000" stroke-width="1.0" stroke-linejoin="round" stroke-linecap="butt" d="m494.84085 249.15913l2.330719 -10.330704" fill-rule="evenodd"/><path fill="#000000" fill-opacity="0.0" d="m502.82843 238.82843l2.330719 10.330704" fill-rule="evenodd"/><path stroke="#000000" stroke-width="1.0" stroke-linejoin="round" stroke-linecap="butt" d="m502.82843 238.82843l2.330719 10.330704" fill-rule="evenodd"/><path fill="#000000" fill-opacity="0.0" d="m438.82843 257.17157l10.330719 -18.330704" fill-rule="evenodd"/><path stroke="#000000" stroke-width="1.0" stroke-linejoin="round" stroke-linecap="butt" d="m438.82843 257.17157l10.330719 -18.330704" fill-rule="evenodd"/><path fill="#000000" fill-opacity="0.0" d="m422.82843 174.82843l10.330719 82.33072" fill-rule="evenodd"/><path stroke="#000000" stroke-width="1.0" stroke-linejoin="round" stroke-linecap="butt" d="m422.82843 174.82843l10.330719 82.33072" fill-rule="evenodd"/><path fill="#000000" fill-opacity="0.0" d="m593.1716 193.17157l-26.330688 -58.330704" fill-rule="evenodd"/><path stroke="#000000" stroke-width="1.0" stroke-linejoin="round" stroke-linecap="butt" d="m593.1716 193.17157l-26.330688 -58.330704" fill-rule="evenodd"/><path fill="#000000" fill-opacity="0.0" d="m561.1716 129.17157l-10.330688 -34.330704" fill-rule="evenodd"/><path stroke="#000000" stroke-width="1.0" stroke-linejoin="round" stroke-linecap="butt" d="m561.1716 129.17157l-10.330688 -34.330704" fill-rule="evenodd"/><path fill="#000000" fill-opacity="0.0" d="m545.1716 94.82843l-2.3306885 170.33072" fill-rule="evenodd"/><path stroke="#000000" stroke-width="1.0" stroke-linejoin="round" stroke-linecap="butt" d="m545.1716 94.82843l-2.3306885 170.33072" fill-rule="evenodd"/><path fill="#000000" fill-opacity="0.0" d="m537.1716 270.82843l-2.3306885 106.33072" fill-rule="evenodd"/><path stroke="#000000" stroke-width="1.0" stroke-linejoin="round" stroke-linecap="butt" d="m537.1716 270.82843l-2.3306885 106.33072" fill-rule="evenodd"/><path fill="#000000" fill-opacity="0.0" d="m510.82843 254.82843l18.330688 122.33072" fill-rule="evenodd"/><path stroke="#000000" stroke-width="1.0" stroke-linejoin="round" stroke-linecap="butt" d="m510.82843 254.82843l18.330688 122.33072" fill-rule="evenodd"/><path fill="#000000" fill-opacity="0.0" d="m200.0 72.0l128.0 0l0 32.0l-128.0 0z" fill-rule="evenodd"/><path fill="#000000" d="m247.55151 94.72l0 -13.359375l1.640625 0l0 13.359375l-1.640625 0zm3.5823212 -4.84375q0 -2.6875 1.484375 -3.96875q1.25 -1.078125 3.046875 -1.078125q2.0000153 0 3.2656403 1.3125q1.265625 1.296875 1.265625 3.609375q0 1.859375 -0.5625 2.9375q-0.5625 1.0625 -1.640625 1.65625q-1.0625 0.59375 -2.3281403 0.59375q-2.03125 0 -3.28125 -1.296875q-1.25 -1.3125 -1.25 -3.765625zm1.6875 0q0 1.859375 0.796875 2.796875q0.8125 0.921875 2.046875 0.921875q1.2187653 0 2.0312653 -0.921875q0.8125 -0.9375 0.8125 -2.84375q0 -1.796875 -0.8125 -2.71875q-0.8125 -0.921875 -2.0312653 -0.921875q-1.234375 0 -2.046875 0.921875q-0.796875 0.90625 -0.796875 2.765625zm8.688217 0q0 -2.6875 1.484375 -3.96875q1.25 -1.078125 3.046875 -1.078125q2.0 0 3.265625 1.3125q1.265625 1.296875 1.265625 3.609375q0 1.859375 -0.5625 2.9375q-0.5625 1.0625 -1.640625 1.65625q-1.0625 0.59375 -2.328125 0.59375q-2.03125 0 -3.28125 -1.296875q-1.25 -1.3125 -1.25 -3.765625zm1.6875 0q0 1.859375 0.796875 2.796875q0.8125 0.921875 2.046875 0.921875q1.21875 0 2.03125 -0.921875q0.8125 -0.9375 0.8125 -2.84375q0 -1.796875 -0.8125 -2.71875q-0.8125 -0.921875 -2.03125 -0.921875q-1.234375 0 -2.046875 0.921875q-0.796875 0.90625 -0.796875 2.765625zm9.297577 8.546875l0 -13.375l1.484375 0l0 1.25q0.53125 -0.734375 1.1875 -1.09375q0.671875 -0.375 1.625 -0.375q1.234375 0 2.171875 0.640625q0.953125 0.625 1.4375 1.796875q0.484375 1.15625 0.484375 2.546875q0 1.484375 -0.53125 2.671875q-0.53125 1.1875 -1.546875 1.828125q-1.015625 0.625 -2.140625 0.625q-0.8125 0 -1.46875 -0.34375q-0.65625 -0.34375 -1.0625 -0.875l0 4.703125l-1.640625 0zm1.484375 -8.484375q0 1.859375 0.75 2.765625q0.765625 0.890625 1.828125 0.890625q1.09375 0 1.875 -0.921875q0.78125 -0.9375 0.78125 -2.875q0 -1.84375 -0.765625 -2.765625q-0.75 -0.921875 -1.8125 -0.921875q-1.046875 0 -1.859375 0.984375q-0.796875 0.96875 -0.796875 2.84375z" fill-rule="nonzero"/><path fill="#000000" fill-opacity="0.0" d="m80.0 32.0l556.0 0" fill-rule="evenodd"/><path stroke="#000000" stroke-width="1.0" stroke-linejoin="round" stroke-linecap="butt" stroke-dasharray="1.0,3.0" d="m80.0 32.0l556.0 0" fill-rule="evenodd"/><path fill="#000000" fill-opacity="0.0" d="m80.0 112.0l556.0 0" fill-rule="evenodd"/><path stroke="#000000" stroke-width="1.0" stroke-linejoin="round" stroke-linecap="butt" stroke-dasharray="1.0,3.0" d="m80.0 112.0l556.0 0" fill-rule="evenodd"/><path fill="#000000" fill-opacity="0.0" d="m80.0 216.0l556.0 0" fill-rule="evenodd"/><path stroke="#000000" stroke-width="1.0" stroke-linejoin="round" stroke-linecap="butt" stroke-dasharray="1.0,3.0" d="m80.0 216.0l556.0 0" fill-rule="evenodd"/><path fill="#000000" fill-opacity="0.0" d="m80.0 304.0l556.0 0" fill-rule="evenodd"/><path stroke="#000000" stroke-width="1.0" stroke-linejoin="round" stroke-linecap="butt" stroke-dasharray="1.0,3.0" d="m80.0 304.0l556.0 0" fill-rule="evenodd"/><path fill="#000000" fill-opacity="0.0" d="m597.0079 179.5l90.99213 0l0 32.0l-90.99213 0z" fill-rule="evenodd"/><path fill="#000000" d="m613.86725 199.11063l1.6875 0.203125q-0.40625 1.484375 -1.484375 2.3125q-1.078125 0.8125 -2.765625 0.8125q-2.125 0 -3.375 -1.296875q-1.234375 -1.3125 -1.234375 -3.671875q0 -2.453125 1.25 -3.796875q1.265625 -1.34375 3.265625 -1.34375q1.9375 0 3.15625 1.328125q1.234375 1.3125 1.234375 3.703125q0 0.15625 0 0.4375l-7.21875 0q0.09375 1.59375 0.90625 2.453125q0.8125 0.84375 2.015625 0.84375q0.90625 0 1.546875 -0.46875q0.640625 -0.484375 1.015625 -1.515625zm-5.390625 -2.65625l5.40625 0q-0.109375 -1.21875 -0.625 -1.828125q-0.78125 -0.953125 -2.03125 -0.953125q-1.125 0 -1.90625 0.765625q-0.765625 0.75 -0.84375 2.015625zm9.125732 5.765625l0 -9.671875l1.46875 0l0 1.46875q0.5625 -1.03125 1.03125 -1.359375q0.484375 -0.328125 1.0625 -0.328125q0.828125 0 1.6875 0.53125l-0.5625 1.515625q-0.609375 -0.359375 -1.203125 -0.359375q-0.546875 0 -0.96875 0.328125q-0.421875 0.328125 -0.609375 0.890625q-0.28125 0.875 -0.28125 1.921875l0 5.0625l-1.625 0zm6.2126465 0l0 -9.671875l1.46875 0l0 1.46875q0.5625 -1.03125 1.03125 -1.359375q0.484375 -0.328125 1.0625 -0.328125q0.828125 0 1.6875 0.53125l-0.5625 1.515625q-0.609375 -0.359375 -1.203125 -0.359375q-0.546875 0 -0.96875 0.328125q-0.421875 0.328125 -0.609375 0.890625q-0.28125 0.875 -0.28125 1.921875l0 5.0625l-1.625 0zm5.6189575 -4.84375q0 -2.6875 1.484375 -3.96875q1.25 -1.078125 3.046875 -1.078125q2.0 0 3.265625 1.3125q1.265625 1.296875 1.265625 3.609375q0 1.859375 -0.5625 2.9375q-0.5625 1.0625 -1.640625 1.65625q-1.0625 0.59375 -2.328125 0.59375q-2.03125 0 -3.28125 -1.296875q-1.25 -1.3125 -1.25 -3.765625zm1.6875 0q0 1.859375 0.796875 2.796875q0.8125 0.921875 2.046875 0.921875q1.21875 0 2.03125 -0.921875q0.8125 -0.9375 0.8125 -2.84375q0 -1.796875 -0.8125 -2.71875q-0.8125 -0.921875 -2.03125 -0.921875q-1.234375 0 -2.046875 0.921875q-0.796875 0.90625 -0.796875 2.765625zm9.281982 4.84375l0 -9.671875l1.46875 0l0 1.46875q0.5625 -1.03125 1.03125 -1.359375q0.484375 -0.328125 1.0625 -0.328125q0.828125 0 1.6875 0.53125l-0.5625 1.515625q-0.609375 -0.359375 -1.203125 -0.359375q-0.546875 0 -0.96875 0.328125q-0.421875 0.328125 -0.609375 0.890625q-0.28125 0.875 -0.28125 1.921875l0 5.0625l-1.625 0z" fill-rule="nonzero"/><path fill="#000000" fill-opacity="0.0" d="m77.0 408.0c-4.4182816 0 -8.0 -3.581726 -8.0 -8.0l0 -36.0c0 -4.418274 -3.5817184 -8.0 -8.0 -8.0l0 0c4.4182816 0 8.0 -3.581726 8.0 -8.0l0 -36.0l0 0c0 -4.418274 3.5817184 -8.0 8.0 -8.0z" fill-rule="evenodd"/><path fill="#000000" fill-opacity="0.0" d="m77.0 408.0c-4.4182816 0 -8.0 -3.581726 -8.0 -8.0l0 -36.0c0 -4.418274 -3.5817184 -8.0 -8.0 -8.0l0 0c4.4182816 0 8.0 -3.581726 8.0 -8.0l0 -36.0l0 0c0 -4.418274 3.5817184 -8.0 8.0 -8.0" fill-rule="evenodd"/><path stroke="#000000" stroke-width="1.0" stroke-linejoin="round" stroke-linecap="butt" d="m77.0 408.0c-4.4182816 0 -8.0 -3.581726 -8.0 -8.0l0 -36.0c0 -4.418274 -3.5817184 -8.0 -8.0 -8.0l0 0c4.4182816 0 8.0 -3.581726 8.0 -8.0l0 -36.0l0 0c0 -4.418274 3.5817184 -8.0 8.0 -8.0" fill-rule="evenodd"/><path fill="#000000" fill-opacity="0.0" d="m77.0 304.0c-4.4182816 0 -8.0 -3.581726 -8.0 -8.0l0 -28.0c0 -4.418274 -3.5817184 -8.0 -8.0 -8.0l0 0c4.4182816 0 8.0 -3.581726 8.0 -8.0l0 -28.0l0 0c0 -4.418274 3.5817184 -8.0 8.0 -8.0z" fill-rule="evenodd"/><path fill="#000000" fill-opacity="0.0" d="m77.0 304.0c-4.4182816 0 -8.0 -3.581726 -8.0 -8.0l0 -28.0c0 -4.418274 -3.5817184 -8.0 -8.0 -8.0l0 0c4.4182816 0 8.0 -3.581726 8.0 -8.0l0 -28.0l0 0c0 -4.418274 3.5817184 -8.0 8.0 -8.0" fill-rule="evenodd"/><path stroke="#000000" stroke-width="1.0" stroke-linejoin="round" stroke-linecap="butt" d="m77.0 304.0c-4.4182816 0 -8.0 -3.581726 -8.0 -8.0l0 -28.0c0 -4.418274 -3.5817184 -8.0 -8.0 -8.0l0 0c4.4182816 0 8.0 -3.581726 8.0 -8.0l0 -28.0l0 0c0 -4.418274 3.5817184 -8.0 8.0 -8.0" fill-rule="evenodd"/><path fill="#000000" fill-opacity="0.0" d="m77.0 216.0c-4.4182816 0 -8.0 -3.581726 -8.0 -8.0l0 -36.0c0 -4.418274 -3.5817184 -8.0 -8.0 -8.0l0 0c4.4182816 0 8.0 -3.581726 8.0 -8.0l0 -36.0l0 0c0 -4.4182816 3.5817184 -8.0 8.0 -8.0z" fill-rule="evenodd"/><path fill="#000000" fill-opacity="0.0" d="m77.0 216.0c-4.4182816 0 -8.0 -3.581726 -8.0 -8.0l0 -36.0c0 -4.418274 -3.5817184 -8.0 -8.0 -8.0l0 0c4.4182816 0 8.0 -3.581726 8.0 -8.0l0 -36.0l0 0c0 -4.4182816 3.5817184 -8.0 8.0 -8.0" fill-rule="evenodd"/><path stroke="#000000" stroke-width="1.0" stroke-linejoin="round" stroke-linecap="butt" d="m77.0 216.0c-4.4182816 0 -8.0 -3.581726 -8.0 -8.0l0 -36.0c0 -4.418274 -3.5817184 -8.0 -8.0 -8.0l0 0c4.4182816 0 8.0 -3.581726 8.0 -8.0l0 -36.0l0 0c0 -4.4182816 3.5817184 -8.0 8.0 -8.0" fill-rule="evenodd"/><path fill="#000000" fill-opacity="0.0" d="m77.0 112.0c-4.4182816 0 -8.0 -3.5817184 -8.0 -8.0l0 -24.0c0 -4.4182816 -3.5817184 -8.0 -8.0 -8.0l0 0c4.4182816 0 8.0 -3.5817184 8.0 -8.0l0 -24.0l0 0c0 -4.4182777 3.5817184 -8.0 8.0 -8.0z" fill-rule="evenodd"/><path fill="#000000" fill-opacity="0.0" d="m77.0 112.0c-4.4182816 0 -8.0 -3.5817184 -8.0 -8.0l0 -24.0c0 -4.4182816 -3.5817184 -8.0 -8.0 -8.0l0 0c4.4182816 0 8.0 -3.5817184 8.0 -8.0l0 -24.0l0 0c0 -4.4182777 3.5817184 -8.0 8.0 -8.0" fill-rule="evenodd"/><path stroke="#000000" stroke-width="1.0" stroke-linejoin="round" stroke-linecap="butt" d="m77.0 112.0c-4.4182816 0 -8.0 -3.5817184 -8.0 -8.0l0 -24.0c0 -4.4182816 -3.5817184 -8.0 -8.0 -8.0l0 0c4.4182816 0 8.0 -3.5817184 8.0 -8.0l0 -24.0l0 0c0 -4.4182777 3.5817184 -8.0 8.0 -8.0" fill-rule="evenodd"/><path fill="#000000" fill-opacity="0.0" d="m18.0 336.0l56.0 0l0 40.0l-56.0 0z" fill-rule="evenodd"/><path fill="#000000" d="m40.701027 362.91998l0 -13.359375l4.609375 0q1.546875 0 2.375 0.203125q1.140625 0.25 1.953125 0.953125q1.0625 0.890625 1.578125 2.28125q0.53125 1.390625 0.53125 3.171875q0 1.515625 -0.359375 2.703125q-0.359375 1.171875 -0.921875 1.9375q-0.546875 0.765625 -1.203125 1.21875q-0.65625 0.4375 -1.59375 0.671875q-0.9375 0.21875 -2.140625 0.21875l-4.828125 0zm1.765625 -1.578125l2.859375 0q1.3125 0 2.0625 -0.234375q0.75 -0.25 1.203125 -0.703125q0.625 -0.625 0.96875 -1.6875q0.359375 -1.0625 0.359375 -2.578125q0 -2.09375 -0.6875 -3.21875q-0.6875 -1.125 -1.671875 -1.5q-0.703125 -0.28125 -2.28125 -0.28125l-2.8125 0l0 10.203125z" fill-rule="nonzero"/><path fill="#000000" fill-opacity="0.0" d="m21.0 240.0l56.0 0l0 40.0l-56.0 0z" fill-rule="evenodd"/><path fill="#000000" d="m53.232277 262.23248l1.765625 0.453125q-0.5625 2.171875 -2.0 3.328125q-1.4375 1.140625 -3.53125 1.140625q-2.15625 0 -3.515625 -0.875q-1.34375 -0.890625 -2.0625 -2.546875q-0.703125 -1.671875 -0.703125 -3.59375q0 -2.078125 0.796875 -3.625q0.796875 -1.5624847 2.265625 -2.3593597q1.484375 -0.8125 3.25 -0.8125q2.0 0 3.359375 1.015625q1.375 1.015625 1.90625 2.8749847l-1.734375 0.40625q-0.46875 -1.453125 -1.359375 -2.1093597q-0.875 -0.671875 -2.203125 -0.671875q-1.546875 0 -2.578125 0.734375q-1.03125 0.73435974 -1.453125 1.9843597q-0.421875 1.234375 -0.421875 2.5625q0 1.703125 0.5 2.96875q0.5 1.265625 1.546875 1.90625q1.046875 0.625 2.265625 0.625q1.484375 0 2.515625 -0.859375q1.03125 -0.859375 1.390625 -2.546875z" fill-rule="nonzero"/><path fill="#000000" fill-opacity="0.0" d="m21.0 144.0l56.0 0l0 40.0l-56.0 0z" fill-rule="evenodd"/><path fill="#000000" d="m44.13759 170.92l0 -13.359375l5.015625 0q1.53125 0 2.453125 0.40625q0.921875 0.40625 1.4375 1.25q0.53125 0.84375 0.53125 1.765625q0 0.859375 -0.46875 1.625q-0.453125 0.75 -1.390625 1.203125q1.203125 0.359375 1.859375 1.21875q0.65625 0.859375 0.65625 2.015625q0 0.9375 -0.40625 1.75q-0.390625 0.796875 -0.984375 1.234375q-0.578125 0.4375 -1.453125 0.671875q-0.875 0.21875 -2.15625 0.21875l-5.09375 0zm1.78125 -7.75l2.875 0q1.1875 0 1.6875 -0.140625q0.671875 -0.203125 1.015625 -0.671875q0.34375 -0.46875 0.34375 -1.171875q0 -0.65625 -0.328125 -1.15625q-0.3125 -0.515625 -0.90625 -0.703125q-0.59375 -0.1875 -2.03125 -0.1875l-2.65625 0l0 4.03125zm0 6.171875l3.3125 0q0.859375 0 1.203125 -0.0625q0.609375 -0.109375 1.015625 -0.359375q0.421875 -0.265625 0.6875 -0.75q0.265625 -0.484375 0.265625 -1.125q0 -0.75 -0.390625 -1.296875q-0.375 -0.546875 -1.0625 -0.765625q-0.671875 -0.234375 -1.953125 -0.234375l-3.078125 0l0 4.59375z" fill-rule="nonzero"/><path fill="#000000" fill-opacity="0.0" d="m21.0 52.0l56.0 0l0 40.0l-56.0 0z" fill-rule="evenodd"/><path fill="#000000" d="m42.746964 78.92l5.125 -13.359375l1.90625 0l5.46875 13.359375l-2.015625 0l-1.546875 -4.046875l-5.59375 0l-1.46875 4.046875l-1.875 0zm3.859375 -5.484375l4.53125 0l-1.40625 -3.703125q-0.625 -1.6875 -0.9375 -2.765625q-0.265625 1.28125 -0.71875 2.546875l-1.46875 3.921875z" fill-rule="nonzero"/><path fill="#000000" fill-opacity="0.0" d="m432.0 255.25928l90.99213 0l0 32.0l-90.99213 0z" fill-rule="evenodd"/><path fill="#000000" d="m456.82556 277.97928l0 -8.40625l-1.453125 0l0 -1.265625l1.453125 0l0 -1.03125q0 -0.96875 0.171875 -1.453125q0.234375 -0.640625 0.828125 -1.03125q0.59375 -0.390625 1.671875 -0.390625q0.6875 0 1.53125 0.15625l-0.25 1.4375q-0.5 -0.09375 -0.953125 -0.09375q-0.75 0 -1.0625 0.328125q-0.3125 0.3125 -0.3125 1.1875l0 0.890625l1.890625 0l0 1.265625l-1.890625 0l0 8.40625l-1.625 0zm4.792694 -11.46875l0 -1.890625l1.640625 0l0 1.890625l-1.640625 0zm0 11.46875l0 -9.671875l1.640625 0l0 9.671875l-1.640625 0zm4.144806 0l0 -9.671875l1.46875 0l0 1.375q1.0625 -1.59375 3.078125 -1.59375q0.875 0 1.609375 0.3125q0.734375 0.3125 1.09375 0.828125q0.375 0.5 0.515625 1.203125q0.09375 0.453125 0.09375 1.59375l0 5.953125l-1.640625 0l0 -5.890625q0 -1.0 -0.203125 -1.484375q-0.1875 -0.5 -0.671875 -0.796875q-0.484375 -0.296875 -1.140625 -0.296875q-1.046875 0 -1.8125 0.671875q-0.75 0.65625 -0.75 2.515625l0 5.28125l-1.640625 0zm17.000732 -3.109375l1.6875 0.203125q-0.40625 1.484375 -1.484375 2.3125q-1.078125 0.8125 -2.765625 0.8125q-2.125 0 -3.375 -1.296875q-1.234375 -1.3125 -1.234375 -3.671875q0 -2.453125 1.25 -3.796875q1.265625 -1.34375 3.265625 -1.34375q1.9375 0 3.15625 1.328125q1.234375 1.3125 1.234375 3.703125q0 0.15625 0 0.4375l-7.21875 0q0.09375 1.59375 0.90625 2.453125q0.8125 0.84375 2.015625 0.84375q0.90625 0 1.546875 -0.46875q0.640625 -0.484375 1.015625 -1.515625zm-5.390625 -2.65625l5.40625 0q-0.109375 -1.21875 -0.625 -1.828125q-0.78125 -0.953125 -2.03125 -0.953125q-1.125 0 -1.90625 0.765625q-0.765625 0.75 -0.84375 2.015625zm8.485077 2.875l1.625 -0.25q0.125 0.96875 0.75 1.5q0.625 0.515625 1.75 0.515625q1.125 0 1.671875 -0.453125q0.546875 -0.46875 0.546875 -1.09375q0 -0.546875 -0.484375 -0.875q-0.328125 -0.21875 -1.671875 -0.546875q-1.8125 -0.46875 -2.515625 -0.796875q-0.6875 -0.328125 -1.046875 -0.90625q-0.359375 -0.59375 -0.359375 -1.3125q0 -0.640625 0.296875 -1.1875q0.296875 -0.5625 0.8125 -0.921875q0.375 -0.28125 1.03125 -0.46875q0.671875 -0.203125 1.421875 -0.203125q1.140625 0 2.0 0.328125q0.859375 0.328125 1.265625 0.890625q0.421875 0.5625 0.578125 1.5l-1.609375 0.21875q-0.109375 -0.75 -0.640625 -1.171875q-0.515625 -0.421875 -1.46875 -0.421875q-1.140625 0 -1.625 0.375q-0.46875 0.375 -0.46875 0.875q0 0.3125 0.1875 0.578125q0.203125 0.265625 0.640625 0.4375q0.234375 0.09375 1.4375 0.421875q1.75 0.453125 2.4375 0.75q0.6875 0.296875 1.078125 0.859375q0.390625 0.5625 0.390625 1.40625q0 0.828125 -0.484375 1.546875q-0.46875 0.71875 -1.375 1.125q-0.90625 0.390625 -2.046875 0.390625q-1.875 0 -2.875 -0.78125q-0.984375 -0.78125 -1.25 -2.328125zm13.5625 1.421875l0.234375 1.453125q-0.6875 0.140625 -1.234375 0.140625q-0.890625 0 -1.390625 -0.28125q-0.484375 -0.28125 -0.6875 -0.734375q-0.203125 -0.46875 -0.203125 -1.9375l0 -5.578125l-1.203125 0l0 -1.265625l1.203125 0l0 -2.390625l1.625 -0.984375l0 3.375l1.65625 0l0 1.265625l-1.65625 0l0 5.671875q0 0.6875 0.078125 0.890625q0.09375 0.203125 0.28125 0.328125q0.203125 0.109375 0.578125 0.109375q0.265625 0 0.71875 -0.0625z" fill-rule="nonzero"/></g></svg>